<?xml version="1.0" encoding="UTF-8"?>
<svg id="_レイヤー_1" data-name="レイヤー_1" xmlns="http://www.w3.org/2000/svg" version="1.1" viewBox="0 0 226.77 229.61">
  <!-- Generator: Adobe Illustrator 29.6.1, SVG Export Plug-In . SVG Version: 2.1.1 Build 9)  -->
  <defs>
    <style>
      .st0 {
        fill: #f7f5f5;
      }

      .st0, .st1 {
        display: none;
      }

      .st2 {
        fill: #231815;
        stroke: #000;
        stroke-miterlimit: 10;
      }
    </style>
  </defs>
  <g>
    <path d="M61.18,5.44c-22.43-.75-41.82,16.24-41.81,39.11,0,3.86,6,3.87,6,0,0-19.7,16.67-33.74,35.81-33.11,3.86.13,3.86-5.87,0-6h0Z"/>
    <path d="M26.22,14.47c3.45,3.41,6.9,6.82,10.35,10.23l1.47,1.45c.7.69,1.96.75,2.65,0s.75-1.92,0-2.65c-3.45-3.41-6.9-6.82-10.35-10.23l-1.47-1.45c-.7-.69-1.96-.75-2.65,0s-.75,1.92,0,2.65h0Z"/>
    <path d="M16.41,30.06c4.09,2.23,8.18,4.45,12.26,6.68l1.77.96c.89.48,2.04.22,2.57-.67s.22-2.08-.67-2.57c-4.09-2.23-8.18-4.45-12.26-6.68l-1.77-.96c-.89-.48-2.04-.22-2.57.67s-.22,2.08.67,2.57h0Z"/>
    <path d="M43.19,3.91c1.87,4.16,3.73,8.32,5.6,12.47l.8,1.78c.41.92,1.76,1.14,2.57.67.95-.56,1.09-1.64.67-2.57-1.87-4.16-3.73-8.32-5.6-12.47l-.8-1.78c-.41-.92-1.76-1.14-2.57-.67-.95.56-1.09,1.64-.67,2.57h0Z"/>
  </g>
  <g>
    <path d="M176.35,16.42c19.41,2.7,34.49,18.62,34.97,38.41.09,3.85,6.09,3.87,6,0-.54-22.25-17.29-41.13-39.38-44.2-3.78-.53-5.41,5.26-1.6,5.79h0Z"/>
    <path d="M191.25,9.1c-2.12,4.04-4.24,8.08-6.35,12.13l-.9,1.72c-.47.9-.23,2.04.67,2.57.84.49,2.09.23,2.57-.67,2.12-4.04,4.24-8.08,6.35-12.13l.9-1.72c.47-.9.23-2.04-.67-2.57-.84-.49-2.09-.23-2.57.67h0Z"/>
    <path d="M207.79,21.82c-3.47,2.98-6.94,5.97-10.41,8.95-.5.43-1,.86-1.5,1.29-.75.64-.71,2,0,2.65.79.73,1.86.68,2.65,0,3.47-2.98,6.94-5.97,10.41-8.95l1.5-1.29c.75-.64.71-2,0-2.65-.79-.73-1.86-.68-2.65,0h0Z"/>
    <path d="M219.43,39.04c-4.31,1.62-8.62,3.24-12.93,4.86l-1.84.69c-.95.36-1.6,1.27-1.31,2.31.25.91,1.35,1.67,2.31,1.31,4.31-1.62,8.62-3.24,12.93-4.86l1.84-.69c.95-.36,1.6-1.27,1.31-2.31-.25-.91-1.35-1.67-2.31-1.31h0Z"/>
  </g>
  <g>
    <g>
      <ellipse class="st2" cx="17.59" cy="118.68" rx="15.04" ry="16.28" transform="translate(-102.29 113.81) rotate(-79.25)"/>
      <ellipse class="st2" cx="22.37" cy="155.51" rx="9.34" ry="9.21"/>
      <ellipse class="st2" cx="37.25" cy="178.37" rx="4.53" ry="4.47"/>
    </g>
    <g class="st1">
      <path d="M14.47,94.92c0,2.45.01,4.91.02,7.36v1.06c0,.98.86,1.92,1.88,1.88s1.88-.82,1.88-1.88c0-2.45-.01-4.91-.02-7.36v-1.06c0-.98-.86-1.92-1.88-1.88s-1.88.82-1.88,1.88h0Z"/>
      <path d="M31.6,100.29c-1.28,2.11-2.55,4.21-3.83,6.32l-.55.91c-.51.84-.21,2.1.67,2.57s2.02.22,2.57-.67c1.28-2.11,2.55-4.21,3.83-6.32l.55-.91c.51-.84.21-2.1-.67-2.57s-2.02-.22-2.57.67h0Z"/>
      <path d="M-1.56,102.86c1.53,1.94,3.07,3.89,4.6,5.83l.64.81c.28.35.9.55,1.33.55.46,0,1.01-.2,1.33-.55s.57-.83.55-1.33c-.02-.53-.22-.91-.55-1.33-1.53-1.94-3.07-3.89-4.6-5.83l-.64-.81c-.28-.35-.9-.55-1.33-.55-.46,0-1.01.2-1.33.55s-.57.83-.55,1.33c.02.53.22.91.55,1.33h0Z"/>
    </g>
    <ellipse class="st0" cx="22.29" cy="117.24" rx="5.94" ry="5.86"/>
  </g>
  <g>
    <g>
      <ellipse class="st2" cx="213.92" cy="124.92" rx="11.8" ry="11.64"/>
      <ellipse class="st2" cx="196.79" cy="173.9" rx="5.14" ry="5.07"/>
      <ellipse class="st2" cx="212.54" cy="155.51" rx="6.81" ry="6.72"/>
    </g>
    <g class="st1">
      <path d="M212.66,105.6c0,2.45.01,4.91.02,7.36v1.06c0,.68.58,1.25,1.25,1.25s1.25-.57,1.25-1.25c0-2.45-.01-4.91-.02-7.36v-1.06c0-.68-.58-1.25-1.25-1.25s-1.25.57-1.25,1.25h0Z"/>
      <path d="M205.51,108.88c0,2.45.01,4.91.02,7.36v1.06c0,.68.58,1.25,1.25,1.25s1.25-.57,1.25-1.25c0-2.45-.01-4.91-.02-7.36v-1.06c0-.68-.58-1.25-1.25-1.25s-1.25.57-1.25,1.25h0Z"/>
      <path d="M220.01,108.72c0,2.45.01,4.91.02,7.36v1.06c0,.68.58,1.25,1.25,1.25s1.25-.57,1.25-1.25c0-2.45-.01-4.91-.02-7.36v-1.06c0-.68-.58-1.25-1.25-1.25s-1.25.57-1.25,1.25h0Z"/>
    </g>
    <ellipse class="st0" cx="216.53" cy="124.51" rx="4.74" ry="4.68"/>
  </g>
  <path class="st2" d="M51.19,216.34c.63,6.13,3.25,11.8,10.15,11.77,7.27-.03,10.04-7.84,10.04-11.89,0-9.76-10.37-25.5-10.37-25.5,0,0-10.7,17.08-9.82,25.62Z"/>
  <path d="M131.16,30.96c18.11,0,31.83,4.6,41.15,13.79,6.72,6.64,10.09,15.07,10.09,25.28s-3.11,17.62-9.32,23.75c-6.73,6.64-15.53,10.47-26.4,11.49v.77c13.98,2.56,24.32,7.16,31.06,13.79,6.72,6.64,10.09,15.32,10.09,26.04,0,11.75-3.88,21.45-11.65,29.11-8.81,8.68-22.78,13.02-41.93,13.02,0,0-43.62-.51-54.66,5.37-4.38,2.34-35.02,8.89-30.2-20.03s6.43-128.58,6.43-128.58c0-9.19,4.66-13.79,13.98-13.79h61.34ZM71.37,57.11v28.12c0,7.67,6.31,13.9,14.09,13.9h48.03c11.38,0,20.19-3.06,26.4-9.19,4.66-4.6,6.99-10.98,6.99-19.15,0-7.66-2.33-13.79-6.99-18.38-6.73-6.13-16.57-9.19-29.51-9.19h-44.92c-7.78,0-14.09,6.22-14.09,13.9ZM71.37,125.29v36.55c0,7.67,6.31,13.9,14.09,13.9h51.91c11.9,0,20.96-3.06,27.18-9.19,4.66-4.6,6.99-11.49,6.99-20.68s-2.85-16.59-8.54-22.21c-8.29-8.16-20.71-12.26-37.27-12.26h-40.27c-7.78,0-14.09,6.22-14.09,13.9Z"/>
</svg>