<?xml version="1.0" encoding="UTF-8"?>
<svg id="_レイヤー_1" data-name="レイヤー_1" xmlns="http://www.w3.org/2000/svg" width="240" height="60" version="1.1" viewBox="0 0 240 60">
  <!-- Generator: Adobe Illustrator 29.6.1, SVG Export Plug-In . SVG Version: 2.1.1 Build 9)  -->
  <defs>
    <style>
      .st0 {
        fill: #f79119;
      }

      .st1 {
        fill: tan;
      }
    </style>
  </defs>
  <g>
    <path class="st0" d="M32.971,32.912h-8.236l-8.438-12.575c-.162-.242-.417-.774-.767-1.595h-.101v14.17h-6.52V3.966h6.52v13.687h.101c.162-.377.431-.915.808-1.615l7.993-12.071h7.771l-10.093,13.808,10.961,15.139Z"/>
    <path class="st1" d="M60.821,20.377c0,8.693-4.051,13.04-12.152,13.04-7.859,0-11.788-4.246-11.788-12.737V3.966h6.54v16.795c0,4.683,1.83,7.024,5.49,7.024,3.593,0,5.39-2.261,5.39-6.782V3.966h6.52v16.411Z"/>
    <path class="st1" d="M67.275,31.802v-6.459c1.171.982,2.442,1.719,3.815,2.21,1.373.491,2.759.737,4.158.737.821,0,1.538-.074,2.15-.223.612-.147,1.124-.353,1.534-.615.41-.263.717-.572.918-.929s.303-.743.303-1.161c0-.564-.162-1.069-.484-1.514-.323-.443-.764-.854-1.322-1.231-.559-.376-1.221-.739-1.988-1.09-.767-.35-1.595-.706-2.483-1.069-2.261-.942-3.946-2.093-5.056-3.452-1.11-1.358-1.666-3.001-1.666-4.925,0-1.507.303-2.803.909-3.886.605-1.083,1.43-1.975,2.473-2.675,1.042-.699,2.25-1.214,3.623-1.544s2.826-.495,4.36-.495c1.507,0,2.843.091,4.007.272s2.237.462,3.22.838v6.035c-.484-.336-1.013-.632-1.584-.888-.572-.256-1.161-.468-1.766-.636s-1.208-.293-1.807-.373c-.599-.081-1.167-.121-1.706-.121-.74,0-1.413.07-2.019.212-.606.141-1.117.34-1.534.595-.417.256-.74.562-.969.919-.229.356-.343.757-.343,1.201,0,.484.127.918.383,1.302.255.384.619.747,1.09,1.09.471.343,1.042.68,1.715,1.01.673.329,1.434.669,2.281,1.019,1.157.484,2.197.999,3.119,1.545.921.545,1.712,1.16,2.372,1.847s1.164,1.471,1.514,2.352c.35.882.525,1.907.525,3.078,0,1.615-.307,2.971-.918,4.067-.613,1.097-1.443,1.985-2.493,2.664-1.05.68-2.271,1.168-3.664,1.464s-2.863.444-4.411.444c-1.588,0-3.098-.135-4.532-.404-1.433-.269-2.674-.673-3.724-1.211Z"/>
    <path class="st1" d="M116.865,20.377c0,8.693-4.051,13.04-12.152,13.04-7.859,0-11.788-4.246-11.788-12.737V3.966h6.54v16.795c0,4.683,1.83,7.024,5.49,7.024,3.593,0,5.39-2.261,5.39-6.782V3.966h6.52v16.411Z"/>
    <path class="st1" d="M150.69,32.912h-6.581l-11.93-18.188c-.7-1.062-1.184-1.863-1.453-2.401h-.081c.107,1.022.161,2.584.161,4.683v15.906h-6.156V3.966h7.024l11.485,17.622c.525.794,1.009,1.582,1.454,2.362h.081c-.108-.673-.162-1.999-.162-3.977V3.966h6.157v28.946Z"/>
    <path class="st1" d="M171.032,33.417c-4.146,0-7.522-1.35-10.133-4.048-2.611-2.697-3.916-6.213-3.916-10.547,0-4.574,1.325-8.275,3.977-11.102,2.65-2.826,6.163-4.239,10.536-4.239,4.131,0,7.472,1.353,10.022,4.058,2.55,2.705,3.825,6.271,3.825,10.698,0,4.549-1.322,8.216-3.967,11.001-2.645,2.786-6.093,4.179-10.345,4.179ZM171.314,9.094c-2.288,0-4.104.857-5.45,2.573s-2.019,3.986-2.019,6.812c0,2.866.673,5.134,2.019,6.803s3.108,2.503,5.289,2.503c2.247,0,4.03-.811,5.349-2.433,1.319-1.621,1.979-3.872,1.979-6.752,0-3.001-.64-5.336-1.918-7.004-1.278-1.669-3.027-2.503-5.248-2.503Z"/>
    <path class="st1" d="M215.696,32.912h-8.235l-8.438-12.575c-.161-.242-.417-.774-.767-1.595h-.102v14.17h-6.52V3.966h6.52v13.687h.102c.161-.377.43-.915.807-1.615l7.994-12.071h7.771l-10.093,13.808,10.96,15.139Z"/>
    <path class="st1" d="M231.91,3.966v5.047h-2.423v18.854h2.423v5.046h-11.365v-5.046h2.423V9.013h-2.423V3.966h11.365Z"/>
  </g>
  <g>
    <path class="st1" d="M29.457,48.413l1.04.368c-.374.832-.811,1.644-1.312,2.433s-1.045,1.538-1.632,2.248c-.587.709-1.203,1.354-1.848,1.936-.646.582-1.31,1.075-1.992,1.48-.064-.106-.152-.222-.264-.345-.112-.122-.222-.242-.328-.359-.107-.117-.208-.219-.304-.305.661-.362,1.314-.811,1.96-1.344.645-.533,1.258-1.133,1.84-1.8.581-.667,1.114-1.365,1.6-2.096.485-.73.898-1.47,1.24-2.217ZM23.441,47.806h13.888v1.2h-13.888v-1.2ZM29.729,43.886h1.264v14.704h-1.264v-14.704ZM31.233,48.445c.352.715.773,1.433,1.264,2.152s1.032,1.411,1.624,2.072c.592.661,1.208,1.259,1.848,1.792s1.28.981,1.92,1.344c-.096.074-.203.174-.32.296-.118.123-.229.248-.336.376-.106.128-.192.251-.256.368-.651-.416-1.296-.915-1.936-1.496-.64-.581-1.256-1.227-1.848-1.937-.592-.709-1.142-1.455-1.648-2.239-.506-.784-.952-1.57-1.336-2.36l1.024-.368Z"/>
    <path class="st1" d="M46.577,52.974l.96.432c-.416.363-.896.707-1.44,1.032s-1.131.624-1.76.896c-.63.271-1.27.512-1.92.72-.65.208-1.291.382-1.92.52-.075-.138-.179-.298-.312-.479s-.259-.325-.376-.433c.619-.106,1.25-.25,1.896-.432s1.27-.387,1.872-.616c.603-.229,1.165-.485,1.688-.768.522-.282.96-.573,1.312-.872ZM40.017,46.846h8.081v.864h-8.081v-.864ZM40.081,52.606h14.256v.992h-14.256v-.992ZM41.537,43.918l.944.224c-.17.49-.376.976-.616,1.456-.24.479-.488.891-.744,1.231-.096-.074-.235-.157-.416-.247-.182-.091-.336-.169-.464-.232.288-.32.541-.696.76-1.128s.397-.866.536-1.304ZM40.817,48.558h6.272v.816h-5.312v2.191h-.96v-3.008ZM41.681,45.006h5.856v.848h-6.192l.336-.848ZM42.033,57.453c.533-.074,1.152-.162,1.856-.264s1.453-.216,2.248-.344c.794-.128,1.592-.251,2.392-.368l.048.96c-1.131.182-2.256.365-3.376.552s-2.107.345-2.96.473l-.208-1.009ZM43.617,43.869h1.072v8.129h-1.072v-8.129ZM43.681,55.245l.624-.624.544.177v3.071h-1.168v-2.624ZM46.625,48.558h1.008v1.968c0,.225-.027.397-.08.521-.054.122-.166.216-.336.279-.16.075-.363.118-.608.128-.246.011-.55.017-.912.017-.021-.117-.064-.245-.128-.384s-.128-.267-.192-.385c.267.011.494.017.68.017s.317-.006.392-.017c.117,0,.176-.058.176-.176v-1.968ZM46.593,51.646h1.216v1.536h-1.216v-1.536ZM47.937,52.926c.501,1.259,1.317,2.291,2.447,3.096,1.131.806,2.533,1.353,4.208,1.64-.128.107-.256.259-.384.456s-.229.365-.304.504c-1.174-.234-2.211-.595-3.112-1.079-.901-.485-1.672-1.094-2.312-1.824-.64-.73-1.158-1.581-1.552-2.552l1.008-.24ZM48.945,44.493h1.104v5.393h-1.104v-5.393ZM52.657,53.726l.88.64c-.501.353-1.063.693-1.688,1.024s-1.203.608-1.736.832l-.752-.592c.352-.171.73-.365,1.136-.584s.8-.442,1.185-.672c.384-.229.709-.445.976-.648ZM52.609,44.029h1.104v6.672c0,.31-.04.544-.12.704s-.237.283-.472.368c-.224.086-.525.136-.904.152-.378.016-.851.023-1.416.023-.021-.148-.069-.317-.144-.504-.075-.187-.155-.354-.24-.504.438.011.832.019,1.185.024.352.005.586.003.703-.008.118,0,.197-.019.24-.057.043-.037.064-.104.064-.2v-6.672Z"/>
    <path class="st1" d="M56.865,56.157h14.384v1.2h-14.384v-1.2ZM57.697,45.678h12.736v1.231h-12.736v-1.231ZM63.329,46.302h1.328v10.352h-1.328v-10.352Z"/>
    <path class="st1" d="M73.665,51.869h14.4v1.137h-14.4v-1.137ZM73.825,45.422h14.064v1.12h-14.064v-1.12ZM74.209,57.054c.715-.032,1.536-.069,2.464-.112.929-.042,1.912-.088,2.952-.136s2.114-.102,3.225-.16c1.108-.059,2.213-.12,3.312-.184l-.048,1.12c-1.408.085-2.829.173-4.264.264-1.436.091-2.795.173-4.08.248-1.286.074-2.43.144-3.433.208l-.128-1.248ZM75.409,48.766h10.992v1.12h-10.992v-1.12ZM78.209,52.43l1.36.416c-.234.522-.488,1.072-.76,1.647-.272.576-.55,1.131-.832,1.664-.283.534-.553,1.003-.809,1.408l-1.056-.384c.256-.416.515-.901.776-1.456.261-.555.509-1.122.743-1.704.235-.581.427-1.112.576-1.592ZM77.441,43.869h1.184v4.145h-1.184v-4.145ZM82.625,54.157l1.024-.575c.522.427,1.051.909,1.584,1.447.533.539,1.023,1.072,1.472,1.601.448.527.8,1.021,1.057,1.479l-1.104.656c-.234-.438-.57-.928-1.008-1.472s-.918-1.091-1.44-1.641c-.522-.549-1.051-1.048-1.584-1.496ZM83.008,43.869h1.185v4.145h-1.185v-4.145Z"/>
    <path class="st1" d="M91.025,51.598h5.696v6.848h-1.2v-5.712h-3.344v5.856h-1.152v-6.992ZM91.553,56.558h4.464v1.168h-4.464v-1.168ZM93.361,44.558h8.784v5.328h-8.784v-5.328ZM94.529,45.693v3.04h6.384v-3.04h-6.384ZM98.481,51.598h6.016v6.896h-1.216v-5.76h-3.648v5.856h-1.151v-6.992ZM99.057,56.558h4.752v1.168h-4.752v-1.168Z"/>
    <path class="st1" d="M114.529,49.533c.32,0,.605.078.856.232.25.154.453.357.607.608.154.25.232.535.232.855,0,.31-.078.592-.232.848-.154.257-.357.462-.607.616-.251.155-.536.232-.856.232-.31,0-.592-.077-.848-.232-.256-.154-.462-.359-.616-.616-.155-.256-.232-.538-.232-.848,0-.32.077-.605.232-.855.154-.251.36-.454.616-.608s.538-.232.848-.232Z"/>
    <path class="st1" d="M127.089,43.966l1.104.304c-.299.928-.653,1.846-1.064,2.752-.41.907-.858,1.76-1.344,2.561-.485.8-.989,1.515-1.512,2.144-.032-.096-.086-.222-.16-.376s-.154-.31-.24-.464c-.085-.154-.16-.285-.224-.393.458-.533.904-1.148,1.336-1.848.432-.698.826-1.448,1.184-2.248s.664-1.61.92-2.432ZM125.809,47.869l1.104-1.104.032.032v11.792h-1.136v-10.721ZM128.321,45.773h1.072v10.16h-1.072v-10.16ZM132.401,43.854l1.104.288c-.384.949-.869,1.854-1.455,2.712-.587.858-1.2,1.582-1.841,2.168-.063-.063-.151-.142-.264-.231-.112-.091-.227-.182-.344-.272-.118-.091-.225-.157-.32-.2.65-.544,1.251-1.208,1.8-1.992.55-.783.989-1.607,1.32-2.472ZM136.369,45.838l1.136.256c-.438,1.014-1.021,1.891-1.752,2.632s-1.573,1.368-2.527,1.88c-.955.512-1.987.944-3.097,1.296-.042-.096-.106-.202-.191-.319-.086-.118-.176-.235-.272-.353-.096-.117-.176-.213-.239-.288,1.077-.277,2.071-.643,2.983-1.096s1.707-1.011,2.384-1.672c.678-.661,1.203-1.44,1.576-2.336ZM137.553,54.43l1.04.448c-.523.629-1.195,1.181-2.017,1.655-.821.476-1.741.875-2.76,1.2s-2.094.59-3.224.792c-.064-.139-.155-.304-.272-.496-.117-.191-.234-.352-.352-.479,1.077-.16,2.101-.379,3.071-.656s1.849-.621,2.632-1.032c.784-.41,1.411-.888,1.881-1.432ZM134.529,51.134l.912.384c-.32.331-.707.646-1.16.944s-.936.565-1.448.8c-.512.234-1.023.438-1.536.607-.074-.117-.179-.242-.312-.376-.134-.133-.254-.248-.36-.344.48-.149.966-.325,1.456-.528.491-.202.949-.432,1.376-.688s.784-.522,1.072-.8ZM136.065,52.686l.896.368c-.405.448-.898.855-1.479,1.224-.582.368-1.216.693-1.904.977-.688.282-1.395.525-2.12.728-.063-.117-.154-.253-.271-.408-.118-.154-.235-.285-.353-.392.683-.16,1.354-.36,2.017-.6.661-.24,1.271-.523,1.832-.849.56-.325,1.021-.675,1.384-1.048ZM131.937,46.237c.33.641.813,1.265,1.448,1.872.634.608,1.429,1.146,2.384,1.616.954.47,2.056.821,3.304,1.056-.074.075-.154.171-.24.288-.085.118-.165.235-.239.353-.075.117-.14.229-.192.336-1.248-.288-2.347-.693-3.296-1.216s-1.75-1.106-2.4-1.752-1.157-1.299-1.52-1.961l.752-.592ZM132.049,45.613h6.512v1.008h-7.12l.608-1.008Z"/>
    <path class="st1" d="M140.753,55.71c.438-.128.931-.274,1.48-.44.549-.165,1.131-.352,1.744-.56s1.229-.414,1.848-.616l.208,1.168c-.864.288-1.733.578-2.607.872-.875.293-1.664.558-2.368.792l-.305-1.216ZM140.929,44.941h4.991v1.136h-4.991v-1.136ZM141.089,49.582h4.592v1.119h-4.592v-1.119ZM142.913,45.39h1.152v9.92l-1.152.224v-10.144ZM145.281,56.958h10.384v1.104h-10.384v-1.104ZM146.513,53.661h8.607v1.089h-8.607v-1.089ZM146.705,44.606h8.192v7.168h-8.192v-7.168ZM147.809,45.661v2.032h5.936v-2.032h-5.936ZM147.809,48.67v2.063h5.936v-2.063h-5.936ZM150.257,45.102h1.039v6.16h.097v6.191h-1.232v-6.191h.097v-6.16Z"/>
    <path class="st1" d="M158.097,48.062c.053.011.162.024.328.04.165.016.365.032.6.048.234.017.459.024.672.024h10.608c.352,0,.655-.011.912-.032.256-.021.442-.037.56-.048v1.359c-.096-.01-.277-.021-.544-.031s-.576-.017-.928-.017h-10.608c-.224,0-.448.003-.672.008-.224.006-.419.014-.584.024s-.28.016-.344.016v-1.392ZM162.785,44.958c-.011.074-.026.219-.048.432-.021.214-.032.459-.032.736v5.855c0,.192.006.393.017.601.01.208.021.389.031.544.011.154.017.259.017.312h-1.408c0-.053.005-.154.016-.304s.021-.328.032-.536.017-.413.017-.616v-5.855c0-.182-.006-.376-.017-.584s-.026-.403-.048-.584h1.424ZM168.545,49.966c0,1.066-.066,2.011-.199,2.832-.134.821-.371,1.552-.712,2.191-.342.641-.809,1.208-1.4,1.704s-1.347.946-2.264,1.353l-1.072-1.009c.736-.287,1.376-.602,1.92-.943s.997-.769,1.36-1.28c.362-.512.634-1.152.815-1.92s.272-1.712.272-2.832v-3.888c0-.32-.011-.601-.032-.84-.021-.24-.037-.397-.048-.473h1.439c-.011.075-.026.232-.048.473-.021.239-.032.52-.032.84v3.792Z"/>
    <path class="st1" d="M175.489,50.382c.16.011.357.023.592.04.235.016.493.026.776.031.282.006.568.009.856.009h8.768c.405,0,.752-.011,1.04-.032s.518-.037.688-.048v1.567c-.159-.01-.397-.026-.712-.048s-.647-.032-1-.032h-8.783c-.438,0-.854.009-1.248.024-.396.016-.721.035-.977.056v-1.567Z"/>
    <path class="st1" d="M195.153,45.31c-.021.182-.04.387-.056.616-.017.229-.024.456-.024.68v8.448c0,.405.088.686.265.84.176.154.461.27.855.344.256.043.573.075.952.097s.766.031,1.16.031c.427,0,.885-.01,1.376-.031.49-.021.989-.054,1.496-.097.506-.042.983-.096,1.432-.16.448-.063.837-.138,1.168-.224v1.456c-.459.074-1.011.136-1.656.184-.646.049-1.307.086-1.983.112-.678.026-1.31.04-1.896.04-.47,0-.931-.014-1.384-.04s-.846-.066-1.176-.12c-.619-.106-1.094-.317-1.424-.632-.331-.314-.496-.797-.496-1.448v-8.8c0-.139-.003-.282-.008-.432-.006-.149-.017-.302-.032-.456-.017-.154-.035-.291-.057-.408h1.488ZM194.481,50.35c.48-.106,1.011-.237,1.592-.392.581-.155,1.174-.323,1.776-.505.603-.181,1.189-.373,1.76-.575.57-.203,1.085-.405,1.544-.608.245-.106.485-.219.72-.336.235-.117.465-.245.688-.384l.56,1.279c-.224.097-.472.2-.743.312-.272.112-.526.216-.761.312-.501.203-1.059.411-1.672.624-.613.214-1.245.419-1.896.616-.651.197-1.283.382-1.896.552-.613.171-1.171.315-1.672.433v-1.328ZM202.338,44.766c.138.192.287.419.447.68.16.262.317.525.473.792.154.267.285.507.392.721l-.864.399c-.16-.33-.362-.706-.607-1.128-.246-.421-.475-.786-.688-1.096l.849-.368ZM204.097,44.126c.139.202.293.438.464.703.171.268.333.531.488.792.154.262.285.488.392.681l-.864.399c-.171-.352-.379-.732-.624-1.144-.245-.41-.479-.766-.704-1.064l.849-.367Z"/>
    <path class="st1" d="M220.321,46.606c-.054.064-.12.168-.2.312-.08.144-.146.274-.199.392-.203.522-.47,1.102-.801,1.736-.33.635-.698,1.261-1.104,1.88-.405.618-.832,1.179-1.28,1.68-.587.661-1.231,1.304-1.936,1.928s-1.445,1.206-2.225,1.744c-.778.539-1.589,1-2.432,1.384l-1.024-1.071c.864-.342,1.693-.766,2.488-1.272.795-.506,1.541-1.062,2.24-1.664.698-.603,1.32-1.208,1.864-1.815.362-.416.722-.883,1.08-1.4.356-.518.677-1.045.96-1.584.282-.538.487-1.026.615-1.464h-6.239c-.182,0-.387.006-.616.016-.229.011-.438.021-.624.032s-.312.021-.376.032v-1.456c.074.011.21.023.408.04.197.016.407.029.632.04.224.011.416.016.576.016h6.176c.267,0,.504-.011.712-.032.208-.021.37-.053.488-.096l.815.624ZM216.945,51.758c.438.362.888.763,1.353,1.2.464.438.92.888,1.367,1.352.448.464.864.907,1.248,1.328.385.421.715.803.992,1.144l-1.12.96c-.373-.512-.821-1.063-1.344-1.655-.522-.593-1.074-1.185-1.656-1.776-.581-.592-1.165-1.139-1.752-1.64l.912-.912Z"/>
  </g>
</svg>