<?xml version="1.0" encoding="UTF-8"?>
<svg xmlns="http://www.w3.org/2000/svg" width="160" height="160" version="1.1" viewBox="0 0 160 160">
  <!-- Generator: Adobe Illustrator 29.6.1, SVG Export Plug-In . SVG Version: 2.1.1 Build 9)  -->
  <defs>
    <style>
      .st0 {
        fill: #f39017;
      }

      .st1 {
        fill: #cead80;
      }
    </style>
  </defs>
  <g id="_親の木" data-name="親の木">
    <g>
      <path id="parts-08" class="st1" d="M133.094,50.877h-15.789s9.868-8.542,9.868-8.542c2.125,2.401,5.254,7.234,5.921,8.542Z"/>
      <path id="parts-07" class="st1" d="M105.56,25.62c6.451,2.889,13.557,7.936,18.088,12.808l-18.091,15.659.003-28.468Z"/>
      <path id="parts-06" class="st1" d="M86.887,20.548l-.002,16.93-11.577,10.003.01-27.114c3.136-.279,7.836-.279,11.569.181Z"/>
      <path id="parts-05" class="st1" d="M70.042,21.015l.014,46.38-8.43-7.688V23.038c2.485-.811,5.668-1.566,8.416-2.023Z"/>
      <path id="parts-04" class="st1" d="M56.353,24.97l.012,29.936-18.965-17.295c5.774-5.734,13.026-10.233,18.953-12.641Z"/>
      <path id="parts-03" class="st1" d="M56.364,80.116l-30.154-27.507c2.723-5.161,5.867-9.088,7.316-10.8l22.838,20.834v17.473Z"/>
      <path id="parts-02" class="st1" d="M47.448,79.538l-28.309.003c.083-6.546,1.568-14.469,4.528-21.514l23.781,21.511Z"/>
      <path id="parts-01" class="st1" d="M56.377,97.841H21.429c-.923-2.714-1.965-6.747-2.207-13.04l33.847-.165,3.298,2.992.01,10.214Z"/>
      <path id="base" class="st1" d="M136.361,128.229c-33.303,38.155-93.512,32.74-119.479-10.349C-15.562,64.044,30.202-2.891,92.024,6.635c56.635,8.726,82.273,78.132,44.337,121.594ZM128.836,126.053c26.326-29.124,22.366-73.494-4.483-96.934C91.244.214,40.811,10.484,20.739,49.105c-13.1,25.205-7.55,56.49,11.93,76.994l28.955-.006v-58.652s9.308,8.496,9.308,8.496l4.38-3.77.004-17.718,16.839-14.575-.005-18.511c2.507.471,6.015,1.445,8.148,2.227l-.004,35.029-30.242,26.173v61.39c1.034.339,4.348.783,5.259.789l-.002-59.762,35.911-31.077h24.552c5.329,11.728,7.444,27.002,3.068,41.703-9.365-32.269-47.86-29.404-55.343-.201l.007,28.477,45.333-.057ZM61.599,132.383l-23.526-.011c2.892,3.359,13.697,9.155,23.563,11.516l-.038-11.505ZM123.388,132.372l-39.915-.003.03,5.288,32.264-.024c1.063-.481,7.047-4.539,7.621-5.261ZM104.544,143.331l-21.041-.043v3.762c5.494-.422,15.752-1.302,21.041-3.719Z"/>
    </g>
  </g>
  <g id="_子の木" data-name="子の木">
    <g>
      <path id="parts-021" data-name="parts-02" class="st0" d="M130.484,94.269l-16.362,15.679v16.122s4.345-.021,4.345-.021v-11.755s5.25.259,8.284-1.192c7.629-3.649,7.757-12.348,3.733-18.833Z"/>
      <path id="parts-011" data-name="parts-01" class="st0" d="M114.122,82.228v8.341l6.625-6.379c-1.423-1.106-4.008-1.963-6.625-1.962Z"/>
      <path id="base1" data-name="base" class="st0" d="M128.403,90.569c-.772-1.186-2.773-3.278-4.021-4.171l-14.37,13.791v-17.962c-5.89.23-11.826,4.109-14.763,8.678l10.213,9.71v5.672l-12.739-12.118c-2.342,3.011-3.234,16.5,4.548,19.36,2.75,1.002,8.391.782,8.391.782l.002,11.769,4.348-.005-.002-17.881,18.392-17.627Z"/>
    </g>
  </g>
</svg>