<?xml version="1.0" encoding="UTF-8"?>
<svg id="_レイヤー_4" data-name="レイヤー 4" xmlns="http://www.w3.org/2000/svg" viewBox="0 0 248.14 193.22">
  <defs>
    <style>
      .cls-1 {
        fill: none;
        stroke: #1f2a44;
        stroke-linecap: round;
        stroke-linejoin: round;
        stroke-width: 12px;
      }
    </style>
  </defs>
  <path class="cls-1" d="M77.12,16.86s-4.46,6.76-5.42,22.69c-.95,15.69,1.91,22.98,1.91,22.98"/>
  <path class="cls-1" d="M131.87,6c9.09,15.37,13.16,35.6,14.08,66.73.81,27.58-4.86,59.47-36.28,69.91-33.75,11.21-102.43,10.19-103.65-15.18-1.1-22.78,49.06-33.68,77.02-37.29,66.56-8.58,150.64,1.7,158.36,31.62,6.61,25.59-31.47,57.05-103.51,64.44-18.43,1.89-60.96,1.62-78.26-6.01"/>
  <path class="cls-1" d="M145.06,38.38c9.01-1.54,24.35-4.76,43.45-3.31,12.29.93,26.46,2.32,42.72,9.54"/>
  <path class="cls-1" d="M109.67,142.64c-33.75,11.21-102.45,9.63-103.65-15.18s49.03-33.93,77.02-37.29"/>
</svg>