<?xml version="1.0" encoding="UTF-8" standalone="no"?>
<!DOCTYPE svg PUBLIC "-//W3C//DTD SVG 1.1//EN" "http://www.w3.org/Graphics/SVG/1.1/DTD/svg11.dtd">
<svg width="100%" height="100%" viewBox="0 0 16536 15355" version="1.1" xmlns="http://www.w3.org/2000/svg" xmlns:xlink="http://www.w3.org/1999/xlink" xml:space="preserve" xmlns:serif="http://www.serif.com/" style="fill-rule:evenodd;clip-rule:evenodd;stroke-linecap:round;stroke-linejoin:round;stroke-miterlimit:1.5;">
    <g transform="matrix(1,0,0,1,0,-80)">
        <path d="M-636.321,1864.003L8267.717,-263.277" style="fill:none;stroke:rgb(44,62,85);stroke-opacity:0.51;stroke-width:6.25px;"/>
    </g>
    <g transform="matrix(1,0,0,1,0,-80)">
        <path d="M-1436.684,8709.212L15813.243,-521.71" style="fill:none;stroke:rgb(44,62,85);stroke-opacity:0.51;stroke-width:6.25px;"/>
    </g>
    <g transform="matrix(1,0,0,1,0,-80)">
        <path d="M-636.321,5017.644L16887.414,10409.562" style="fill:none;stroke:rgb(44,62,85);stroke-opacity:0.51;stroke-width:6.25px;"/>
    </g>
    <g transform="matrix(1,0,0,1,0,-80)">
        <path d="M9536.714,-263.277L16887.414,8345.469" style="fill:none;stroke:rgb(44,62,85);stroke-opacity:0.51;stroke-width:6.25px;"/>
    </g>
    <g transform="matrix(1,0,0,1,0,-80)">
        <path d="M10084.33,15738.294L16887.414,9819.821" style="fill:none;stroke:rgb(44,62,85);stroke-opacity:0.51;stroke-width:6.25px;"/>
    </g>
    <g transform="matrix(1,0,0,1,0,-80)">
        <path d="M4966.22,15738.294L12022.05,-263.277" style="fill:none;stroke:rgb(44,62,85);stroke-opacity:0.51;stroke-width:6.25px;"/>
    </g>
    <g transform="matrix(1,0,0,1,0,-80)">
        <path d="M1806.892,0L3028.498,15738.294" style="fill:none;stroke:rgb(44,62,85);stroke-opacity:0.51;stroke-width:6.25px;"/>
    </g>
    <g transform="matrix(1,0,0,1,0,-80)">
        <path d="M7746.428,-263.277L9536.714,16054.226" style="fill:none;stroke:rgb(44,62,85);stroke-opacity:0.51;stroke-width:6.25px;"/>
    </g>
    <path d="M-1778.943,10329.562L17650.916,13468.843" style="fill:none;stroke:rgb(44,62,85);stroke-opacity:0.51;stroke-width:6.25px;"/>
    <path d="M17650.916,2569.166L-636.321,14100.709" style="fill:none;stroke:rgb(44,62,85);stroke-opacity:0.51;stroke-width:6.25px;"/>
    <path d="M-1436.684,2569.166L18203.799,5465.215" style="fill:none;stroke:rgb(44,62,85);stroke-opacity:0.51;stroke-width:6.25px;"/>
    <path d="M4566.039,-601.71L13965.036,15759.355" style="fill:none;stroke:rgb(44,62,85);stroke-opacity:0.51;stroke-width:6.25px;"/>
    <path d="M-989.111,9230.079L18203.799,7071.206" style="fill:none;stroke:rgb(44,62,85);stroke-opacity:0.51;stroke-width:6.25px;"/>
    <path d="M3223.325,-1222.027L7188.279,15759.355" style="fill:none;stroke:rgb(44,62,85);stroke-opacity:0.51;stroke-width:6.25px;"/>
    <path d="M13464.808,-601.71L15518.371,15759.355" style="fill:none;stroke:rgb(44,62,85);stroke-opacity:0.51;stroke-width:6.25px;"/>
    <path d="M15813.243,-601.71L11542.886,15759.355" style="fill:none;stroke:rgb(44,62,85);stroke-opacity:0.51;stroke-width:6.25px;"/>
    <path d="M-541.54,11415.281L8607.344,15759.355" style="fill:none;stroke:rgb(44,62,85);stroke-opacity:0.51;stroke-width:6.25px;"/>
    <path d="M-541.54,14600.935L17019.051,11899.203" style="fill:none;stroke:rgb(44,62,85);stroke-opacity:0.51;stroke-width:6.25px;"/>
    <path d="M-541.54,4013.751L17019.051,1568.712" style="fill:none;stroke:rgb(44,62,85);stroke-opacity:0.51;stroke-width:6.25px;"/>
    <path d="M8910.113,-601.71L1196.09,15759.355" style="fill:none;stroke:rgb(44,62,85);stroke-opacity:0.51;stroke-width:6.25px;"/>
    <path d="M17650.916,4013.751L3644.568,15759.355" style="fill:none;stroke:rgb(44,62,85);stroke-opacity:0.51;stroke-width:6.25px;"/>
    <path d="M5619.147,-601.71L17334.984,13587.318" style="fill:none;stroke:rgb(44,62,85);stroke-opacity:0.51;stroke-width:6.25px;"/>
    <path d="M-989.111,6492.804L17650.916,2279.561" style="fill:none;stroke:rgb(44,62,85);stroke-opacity:0.51;stroke-width:6.25px;"/>
    <path d="M-541.54,9572.339L17019.051,10862.399" style="fill:none;stroke:rgb(44,62,85);stroke-opacity:0.51;stroke-width:6.25px;"/>
    <path d="M537.897,-601.71L9536.714,15974.226" style="fill:none;stroke:rgb(44,62,85);stroke-opacity:0.51;stroke-width:6.25px;"/>
    <path d="M9536.714,-601.71L12780.288,15974.226" style="fill:none;stroke:rgb(44,62,85);stroke-opacity:0.51;stroke-width:6.25px;"/>
    <path d="M17019.051,6492.804L-541.54,7387.139" style="fill:none;stroke:rgb(44,62,85);stroke-opacity:0.51;stroke-width:6.25px;"/>
    <path d="M7119.827,-601.71L6461.635,15974.226" style="fill:none;stroke:rgb(44,62,85);stroke-opacity:0.51;stroke-width:6.25px;"/>
    <path d="M11727.179,-601.71L-541.54,4833.35" style="fill:none;stroke:rgb(44,62,85);stroke-opacity:0.51;stroke-width:6.25px;"/>
    <path d="M-541.54,12731.666L17650.916,12363.079" style="fill:none;stroke:rgb(44,62,85);stroke-opacity:0.51;stroke-width:6.25px;"/>
    <path d="M4460.728,-601.71L-636.321,10329.562" style="fill:none;stroke:rgb(44,62,85);stroke-opacity:0.51;stroke-width:6.25px;"/>
    <path d="M12780.288,-601.71L9831.583,15354.331" style="fill:none;stroke:rgb(44,62,85);stroke-opacity:0.51;stroke-width:6.25px;"/>
</svg>
